<?xml version="1.0" encoding="utf-8"?>
<!-- Generator: Adobe Illustrator 22.1.0, SVG Export Plug-In . SVG Version: 6.00 Build 0)  -->
<svg version="1.1" id="Layer_1" xmlns="http://www.w3.org/2000/svg" xmlns:xlink="http://www.w3.org/1999/xlink" x="0px" y="0px"
	 viewBox="0 0 250 200" style="enable-background:new 0 0 250 200;" xml:space="preserve">
<style type="text/css">
	.st0{fill:none;}
	.st1{fill:#FFFFFF;}
	.st6{fill:url(#p1);stroke:#000000;stroke-width:3;}
</style>
<pattern  y="200" width="42.4" height="42.4" patternUnits="userSpaceOnUse" id="p1" viewBox="7.4 -49.8 42.4 42.4" style="overflow:visible;">
	<g>
		<rect x="7.4" y="-49.8" class="st0" width="42.4" height="42.4"/>
		<g>
			<path class="st1" d="M7.4-7.4h42.4v-42.4H7.4V-7.4z"/>
			<g>
				<rect id="SVGID_3_" x="7.4" y="-49.8" width="42.4" height="42.4"/>
				<g>
					<defs>
						<rect id="SVGID_1_" x="7.4" y="-49.8" width="42.4" height="42.4"/>
					</defs>
					<clipPath id="SVGID_2_">
						<use xlink:href="#SVGID_1_"  style="overflow:visible;"/>
					</clipPath>
					<circle class="st2" cx="28.6" cy="-7.4" r="7.4"/>
				</g>
				<g>
					<defs>
						<rect id="SVGID_4_" x="7.4" y="-49.8" width="42.4" height="42.4"/>
					</defs>
					<clipPath id="SVGID_5_">
						<use xlink:href="#SVGID_4_"  style="overflow:visible;"/>
					</clipPath>
					<circle class="st3" cx="28.6" cy="-49.8" r="7.4"/>
				</g>
				<g>
					<defs>
						<rect id="SVGID_6_" x="7.4" y="-49.8" width="42.4" height="42.4"/>
					</defs>
					<clipPath id="SVGID_7_">
						<use xlink:href="#SVGID_6_"  style="overflow:visible;"/>
					</clipPath>
					<circle class="st4" cx="7.4" cy="-28.6" r="7.4"/>
				</g>
				<g>
					<defs>
						<rect id="SVGID_8_" x="7.4" y="-49.8" width="42.4" height="42.4"/>
					</defs>
					<clipPath id="SVGID_9_">
						<use xlink:href="#SVGID_8_"  style="overflow:visible;"/>
					</clipPath>
					<circle class="st5" cx="49.8" cy="-28.6" r="7.4"/>
				</g>
			</g>
		</g>
	</g>
</pattern>
<path class="st6" d="M10,47l15,40l40-25l10,125h100l10-125l40,25l15-40l-50-35h-28c-22.2,15.7-51.8,15.7-74,0H60L10,47z"/>
</svg>
