<?xml version="1.0" encoding="UTF-8" standalone="no"?>
<!-- Created with Inkscape (http://www.inkscape.org/) -->

<svg
   xmlns:dc="http://purl.org/dc/elements/1.1/"
   xmlns:cc="http://creativecommons.org/ns#"
   xmlns:rdf="http://www.w3.org/1999/02/22-rdf-syntax-ns#"
   xmlns:svg="http://www.w3.org/2000/svg"
   xmlns="http://www.w3.org/2000/svg"
   xmlns:sodipodi="http://sodipodi.sourceforge.net/DTD/sodipodi-0.dtd"
   xmlns:inkscape="http://www.inkscape.org/namespaces/inkscape"
   width="36"
   height="36"
   viewBox="0 0 35.999998 36.000002"
   id="bimetrical-icon-team"
   version="1.1"
   inkscape:version="0.92.2 (5c3e80d, 2017-08-06)"
   sodipodi:docname="bimetrical icon team.svg">
  <title
     id="bimetrical_icon_team">bimetrical icon team</title>
  <defs
     id="defs-bimetrical-icon-team" />
  <sodipodi:namedview
     id="base"
     pagecolor="#ffffff"
     bordercolor="#666666"
     borderopacity="1.0"
     inkscape:pageopacity="0.0"
     inkscape:pageshadow="2"
     inkscape:zoom="5.6"
     inkscape:cx="-68.622023"
     inkscape:cy="21.710555"
     inkscape:document-units="px"
     showgrid="false"
     fit-margin-top="0"
     fit-margin-left="0"
     fit-margin-right="0"
     fit-margin-bottom="0"
     inkscape:snap-grids="true"
     inkscape:snap-to-guides="true"
     inkscape:snap-bbox="true"
     inkscape:snap-intersection-paths="true"
     inkscape:object-nodes="true"
     inkscape:snap-smooth-nodes="true"
     inkscape:snap-midpoints="true"
     units="px"
     inkscape:window-width="1600"
     inkscape:window-height="838"
     inkscape:window-x="-8"
     inkscape:window-y="-8"
     inkscape:window-maximized="1"
     inkscape:current-layer="bimetrical-layer-1" />
  <metadata
     id="metadata-bimetrical-icon-team">
    <rdf:RDF>
      <cc:Work
         rdf:about="">
        <dc:format>image/svg+xml</dc:format>
        <dc:type
           rdf:resource="http://purl.org/dc/dcmitype/StillImage" />
        <dc:title>bimetrical icon team</dc:title>
        <dc:creator>
          <cc:Agent>
            <dc:title>J. Xavier Atero</dc:title>
          </cc:Agent>
        </dc:creator>
        <dc:subject>
          <rdf:Bag>
            <rdf:li>bimetrical</rdf:li>
            <rdf:li>team</rdf:li>
            <rdf:li>people</rdf:li>
            <rdf:li>icon</rdf:li>
            <rdf:li>male</rdf:li>
          </rdf:Bag>
        </dc:subject>
        <dc:description>Icon of a team or group of people</dc:description>
        <dc:identifier>bimetrical-icon-person-male</dc:identifier>
        <dc:rights>
          <cc:Agent>
            <dc:title>Bimetrical S.L.</dc:title>
          </cc:Agent>
        </dc:rights>
        <dc:date>2017-01-16T01:29:20</dc:date>
        <dc:publisher>
          <cc:Agent>
            <dc:title>Bimetrical S.L.</dc:title>
          </cc:Agent>
        </dc:publisher>
        <cc:license
           rdf:resource="http://creativecommons.org/licenses/by-sa/4.0/" />
        <dc:source>J. Xavier Atero's own work for Bimetrical S.L.</dc:source>
        <dc:language>english</dc:language>
      </cc:Work>
      <cc:License
         rdf:about="http://creativecommons.org/licenses/by-sa/4.0/">
        <cc:permits
           rdf:resource="http://creativecommons.org/ns#Reproduction" />
        <cc:permits
           rdf:resource="http://creativecommons.org/ns#Distribution" />
        <cc:requires
           rdf:resource="http://creativecommons.org/ns#Notice" />
        <cc:requires
           rdf:resource="http://creativecommons.org/ns#Attribution" />
        <cc:permits
           rdf:resource="http://creativecommons.org/ns#DerivativeWorks" />
        <cc:requires
           rdf:resource="http://creativecommons.org/ns#ShareAlike" />
      </cc:License>
    </rdf:RDF>
  </metadata>
  <g
     inkscape:label="Capa 1"
     inkscape:groupmode="layer"
     id="bimetrical-layer-1"
     transform="translate(-635.16736,-660.2583)">
    <path
       style="opacity:1;fill-opacity:1;stroke:none;stroke-width:5;stroke-linecap:butt;stroke-linejoin:miter;stroke-miterlimit:4;stroke-dasharray:none;stroke-dashoffset:0;stroke-opacity:1"
       d="m 18,0 a 4.9999994,4.9999994 0 0 0 -5,5 4.9999994,4.9999994 0 0 0 5,5 4.9999994,4.9999994 0 0 0 5,-5 4.9999994,4.9999994 0 0 0 -5,-5 z M 7,4.4179688 A 3.8888884,3.8888884 0 0 0 3.1113281,8.3066406 3.8888884,3.8888884 0 0 0 7,12.195312 3.8888884,3.8888884 0 0 0 10.888672,8.3066406 3.8888884,3.8888884 0 0 0 7,4.4179688 Z m 22,0 A 3.8888884,3.8888884 0 0 0 25.111328,8.3066406 3.8888884,3.8888884 0 0 0 29,12.195312 3.8888884,3.8888884 0 0 0 32.888672,8.3066406 3.8888884,3.8888884 0 0 0 29,4.4179688 Z M 16.722656,10.5 c -0.98123,0 -1.863554,0.38394 -2.527344,1 H 12.796875 C 10.693895,11.5 9,13.193885 9,15.296875 v 7.40625 C 9,24.806105 10.693895,26.5 12.796875,26.5 H 13 v 5.777344 C 13,34.340154 14.659836,36 16.722656,36 h 2.554688 C 21.340154,36 23,34.340154 23,32.277344 V 26.5 h 0.203125 C 25.306105,26.5 27,24.806105 27,22.703125 v -7.40625 C 27,13.193885 25.306105,11.5 23.203125,11.5 h -1.398437 c -0.663801,-0.61606 -1.546114,-1 -2.527344,-1 z M 6.0058594,12.583984 c -0.76318,0 -1.4485638,0.300147 -1.9648438,0.779297 H 2.953125 C 1.317475,13.363281 0,14.680746 0,16.316406 v 5.759766 c 0,1.63565 1.317475,2.953125 2.953125,2.953125 h 0.1582031 v 4.494141 c 0,1.60441 1.2901113,2.894531 2.8945313,2.894531 h 1.9882812 c 1.6044,0 2.8945314,-1.290121 2.8945314,-2.894531 V 26.925781 C 9.345551,26.333758 8.25,24.851764 8.25,23.095703 v -8.023437 c 0,-0.858851 0.2619805,-1.654186 0.7089844,-2.3125 -0.3021395,-0.108829 -0.623633,-0.175782 -0.9648438,-0.175782 z m 21.9999996,0 c -0.34121,0 -0.662703,0.06695 -0.964843,0.175782 0.447005,0.658314 0.708984,1.453649 0.708984,2.3125 v 8.023437 c 0,1.756061 -1.095548,3.238055 -2.638672,3.830078 v 2.597657 c 0,1.60441 1.290111,2.894531 2.894531,2.894531 h 1.988282 c 1.6044,0 2.894531,-1.290121 2.894531,-2.894531 v -4.494141 h 0.158203 C 34.682525,25.029297 36,23.711822 36,22.076172 v -5.759766 c 0,-1.63566 -1.317475,-2.953125 -2.953125,-2.953125 h -1.087891 c -0.51629,-0.47915 -1.201663,-0.779297 -1.964843,-0.779297 z"
       id="bimetrical-path-people"
       transform="translate(635.16736,660.2583)"
       inkscape:connector-curvature="0" />
  </g>
</svg>
